<svg xmlns="http://www.w3.org/2000/svg" width="600" height="350" viewBox="0 0 600 350"><rect width="100%" height="100%" fill="none"/><path fill="#FFFFFF" d="M186.955 231.055h-43.83v-113.75h38.44q20.08 0 31.33 7.81t11.25 23.36q0 7.89-4.18 14.1t-12.15 9.34q10.24 2.19 15.35 9.37 5.12 7.19 5.12 16.64 0 16.33-10.78 24.73t-30.55 8.4m1.72-50.31h-22.73v32.81h21.01q9.07 0 13.83-3.95 4.77-3.94 4.77-11.68 0-8.35-4.07-12.77-4.06-4.41-12.81-4.41m-22.73-45.86v30.08h16.4q9.14 0 14.07-3.75 4.92-3.75 4.92-10.94 0-7.89-4.96-11.64t-14.81-3.75zm115.39 97.81q-18.28 0-29.22-11.72t-10.94-29.76v-3.13q0-18.83 10.35-31.01 10.35-12.19 27.78-12.11 17.11 0 26.56 10.31t9.45 27.89v12.42h-50.47l-.15.47q.62 8.36 5.58 13.75t13.48 5.39q7.58 0 12.58-1.52 5-1.53 10.94-4.81l6.17 14.06q-5.16 4.22-13.52 7-8.36 2.77-18.59 2.77m-2.03-70.16q-6.33 0-10 4.85-3.68 4.84-4.53 12.73l.23.39h27.97v-2.03q0-7.26-3.4-11.6t-10.27-4.34m53.59-36.71h22.81v20.7h14.22v16.01h-14.22v43.05q0 4.92 2.03 7.03 2.04 2.11 5.47 2.11 1.8 0 3.09-.19 1.29-.2 3.01-.67l1.95 16.49q-3.44 1.17-6.72 1.75-3.28.59-7.11.59-11.8 0-18.16-6.48-6.37-6.49-6.37-20.55v-43.13h-12.34v-16.01h12.34zm123.98 105.23h-22.81q-1.25-2.89-2.15-6.09-.89-3.21-1.29-6.57-3.51 6.18-9.25 10.24-5.75 4.06-13.71 4.06-13.29 0-20.47-6.84-7.19-6.83-7.19-18.63 0-12.42 9.57-19.26 9.57-6.83 27.93-6.83h12.73v-6.72q0-6.09-3.2-9.45t-9.45-3.36q-5.55 0-8.56 2.69-3 2.7-3 7.46l-22.04-.08-.07-.46q-.55-10.71 9.29-18.48 9.85-7.77 25.86-7.77 15.16 0 24.61 7.69 9.45 7.7 9.45 21.92v34.92q0 5.93.9 11.17.9 5.23 2.85 10.39m-43.67-15.23q6.02 0 10.71-2.97 4.68-2.97 6.32-6.88v-11.95h-12.73q-7.27 0-11.02 3.63t-3.75 8.79q0 4.22 2.82 6.8 2.81 2.58 7.65 2.58"/></svg>